<svg width="62" height="62" viewBox="0 0 62 62" fill="none" xmlns="http://www.w3.org/2000/svg">
<path d="M27.6875 61V56.3438H12.75V61C12.75 61.2761 12.5261 61.5 12.25 61.5C11.9739 61.5 11.75 61.2761 11.75 61V55.3438H28.6875V61C28.6875 61.2761 28.4636 61.5 28.1875 61.5C27.9114 61.5 27.6875 61.2761 27.6875 61ZM37.5312 61V56.3438H32.9316V61C32.9316 61.2761 32.7077 61.4999 32.4316 61.5C32.1555 61.5 31.9316 61.2761 31.9316 61V42.3945C30.9256 41.9089 29.8859 41.4835 28.6875 41.0098V48.8438H11.75V41.2568C10.7339 41.6787 9.83111 42.049 9 42.4102V61C9 61.2761 8.77614 61.5 8.5 61.5C8.22386 61.5 8 61.2761 8 61V56.3438H2.90625V61C2.90625 61.2761 2.68239 61.5 2.40625 61.5C2.13011 61.5 1.90625 61.2761 1.90625 61V56.3438H0.500001V55.8438C0.500001 53.0519 0.497172 50.9982 0.862305 49.2939C1.23607 47.5497 1.9917 46.1763 3.45899 44.709C4.84849 43.3195 6.39429 42.4683 8.29785 41.625L9.15234 41.2559C10.0351 40.8822 11.0026 40.4911 12.0566 40.0479L13.3799 39.4805C14.3755 38.574 14.9937 37.8599 15.3789 37.1016C15.7476 36.3757 15.92 35.572 15.9609 34.4531C15.2776 33.6487 14.8073 33.0009 14.458 32.3555C14.1111 31.7143 13.8928 31.0937 13.6895 30.3594C12.7862 29.6809 12.1936 29.0155 11.957 28.1797C11.7173 27.3322 11.872 26.4084 12.2188 25.3008V20.6875C12.2188 19.1226 12.9945 17.6031 13.9854 16.4883C14.4845 15.9267 15.0523 15.4518 15.6309 15.1143C16.2042 14.7798 16.8194 14.5625 17.4062 14.5625H23.1133L23.1904 14.5889C24.0915 14.8919 24.7565 15.2341 25.3164 15.7295C25.7325 16.0977 26.0732 16.5358 26.4092 17.0654L26.7461 17.626L26.7871 17.7188C26.86 17.9395 26.771 18.1883 26.5615 18.3086C26.3519 18.4289 26.0913 18.3806 25.9375 18.2061L25.8789 18.124L25.5635 17.5986C25.2585 17.1183 24.9769 16.7649 24.6533 16.4785C24.2398 16.1126 23.7284 15.832 22.9463 15.5625H20.4189C19.8481 16.1117 19.5218 16.5612 19.3086 17.0244C19.0746 17.5327 18.9592 18.0902 18.8379 18.8877C18.7964 19.1607 18.5415 19.3482 18.2686 19.3066C17.9956 19.2651 17.8081 19.0103 17.8496 18.7373C17.9722 17.9311 18.1031 17.2524 18.4004 16.6064C18.5663 16.2461 18.7805 15.9071 19.0586 15.5625H17.4062C17.0557 15.5625 16.616 15.6968 16.1348 15.9775C15.6588 16.2552 15.1717 16.6593 14.7334 17.1523C13.8494 18.1469 13.2188 19.44 13.2188 20.6875V24.875H13.9287C15.2065 23.6711 16.2602 22.7405 17.3457 22.1123C18.4942 21.4477 19.6653 21.1259 21.1562 21.125H28.1895L28.4053 21.1318C29.4828 21.1966 30.513 21.7089 30.9814 22.5596C31.2391 23.0277 31.3114 23.5784 31.1299 24.1504C30.9519 24.7112 30.5428 25.2564 29.9062 25.7656C29.6906 25.9381 29.3756 25.9031 29.2031 25.6875C29.0306 25.4719 29.0656 25.1569 29.2812 24.9844C29.8166 24.5561 30.0762 24.1643 30.1768 23.8477C30.2735 23.5426 30.2341 23.2746 30.1055 23.041C29.8489 22.5755 29.1855 22.1816 28.3535 22.1309L28.1855 22.125H26.0508L22.3008 25.875H13.0898C12.8274 26.7868 12.7768 27.4013 12.9199 27.9072C13.0575 28.3933 13.397 28.8564 14.0967 29.4131L14.4189 29.6582L14.5625 29.7617L14.6084 29.9336C14.8148 30.7039 15.0168 31.2855 15.3379 31.8789C15.6521 32.4597 16.0915 33.0702 16.7891 33.8848C18.1896 34.6426 19.2239 35.0045 20.2236 35.0137C21.2314 35.0229 22.2752 34.674 23.6934 33.8613C24.4583 33.2799 24.9233 32.82 25.2305 32.2812C25.5389 31.7401 25.7147 31.0733 25.8125 30.0342V25.375C25.8125 25.0989 26.0364 24.875 26.3125 24.875C26.5886 24.875 26.8125 25.0989 26.8125 25.375V30.0859L26.8105 30.1084C26.7072 31.2206 26.5111 32.0543 26.0996 32.7764C25.725 33.4336 25.1925 33.9584 24.4814 34.5156C24.5364 35.4857 24.6845 36.2914 25.0723 37.0391C25.4876 37.84 26.2034 38.6227 27.4834 39.4609C27.7884 39.5809 28.0833 39.696 28.3701 39.8086L29.5312 40.2676C30.6517 40.7153 31.6617 41.1404 32.6543 41.6338L33.2188 41.9238C34.5355 42.619 35.8502 43.4622 37.4004 44.668L37.5986 44.8369C38.0474 45.2538 38.4009 45.8271 38.6826 46.4844C39.0064 47.24 39.2516 48.1428 39.4355 49.1309C39.8035 51.1074 39.9375 53.4859 39.9375 55.8438V56.3438H38.5312V61C38.5312 61.2761 38.3074 61.5 38.0312 61.5C37.7551 61.5 37.5312 61.2761 37.5312 61ZM32.9316 55.3438H38.9336C38.9154 53.1857 38.7789 51.0696 38.4521 49.3145C38.2762 48.3692 38.0478 47.5431 37.7627 46.8779C37.5116 46.292 37.2276 45.8579 36.9199 45.5713L36.7871 45.457C35.3517 44.3405 34.1341 43.5532 32.9316 42.9053V55.3438ZM8 42.8594C6.47818 43.5763 5.26395 44.3181 4.16602 45.416C2.8209 46.7611 2.1702 47.9661 1.84082 49.5029C1.52316 50.9853 1.50337 52.7805 1.50195 55.3438H8V42.8594ZM27.3154 40.4688C24.7703 42.2382 22.6718 43.1329 20.5059 43.1064C18.3482 43.0801 16.2172 42.1401 13.6094 40.4697C13.3155 40.5973 13.0292 40.7196 12.75 40.8379V47.8438H27.6875V40.6152C27.5651 40.5672 27.4412 40.5182 27.3154 40.4688ZM16.9238 35.0811C16.8429 36.0199 16.6493 36.8091 16.2705 37.5547C15.8696 38.3438 15.2788 39.0532 14.4688 39.8311C16.8752 41.3374 18.7253 42.0844 20.5176 42.1064C22.2838 42.1281 24.0759 41.4448 26.3701 39.9043C25.3186 39.1322 24.6267 38.3515 24.1846 37.499C23.7861 36.7306 23.6057 35.9339 23.5225 35.0908C22.3263 35.7044 21.2837 36.0226 20.2139 36.0127C19.1493 36.0028 18.1111 35.6693 16.9238 35.0811ZM40.4902 17.5215C40.6855 17.3262 41.002 17.3262 41.1973 17.5215C41.3925 17.7167 41.3925 18.0333 41.1973 18.2285L34.6348 24.791C34.4395 24.9863 34.123 24.9863 33.9277 24.791C33.7325 24.5958 33.7325 24.2792 33.9277 24.084L40.4902 17.5215ZM20.6748 22.1387C19.5841 22.2005 18.7126 22.4765 17.8467 22.9775C17.0804 23.421 16.3123 24.0438 15.3975 24.875H21.8867L24.6367 22.125H21.1562L20.6748 22.1387ZM40.4902 11.8965C40.6855 11.7012 41.002 11.7012 41.1973 11.8965C41.3925 12.0917 41.3925 12.4083 41.1973 12.6035L34.6348 19.166C34.4395 19.3613 34.123 19.3613 33.9277 19.166C33.7325 18.9708 33.7325 18.6542 33.9277 18.459L40.4902 11.8965ZM46.1152 11.8965C46.3105 11.7012 46.627 11.7012 46.8223 11.8965C47.0175 12.0917 47.0175 12.4083 46.8223 12.6035L44.0098 15.416C43.8145 15.6113 43.498 15.6113 43.3027 15.416C43.1075 15.2208 43.1075 14.9042 43.3027 14.709L46.1152 11.8965ZM26.75 13.1875V5.1875H56.8125V48.375H42.7188C42.4426 48.375 42.2188 48.1511 42.2188 47.875C42.2188 47.5989 42.4426 47.375 42.7188 47.375H55.8125V6.1875H27.75V13.1875C27.75 13.4636 27.5261 13.6875 27.25 13.6875C26.9739 13.6875 26.75 13.4636 26.75 13.1875ZM21.5938 10.375V0.5H61.5V53.0625H44.125C43.8489 53.0625 43.625 52.8386 43.625 52.5625C43.625 52.2864 43.8489 52.0625 44.125 52.0625H60.5V1.5H22.5938V10.375C22.5938 10.6511 22.3699 10.875 22.0938 10.875C21.8176 10.875 21.5938 10.6511 21.5938 10.375Z" fill="#BEBFBA"/>
<path d="M1.40625 61V56.8438H2.97523e-06V55.8438C2.97523e-06 53.0723 -0.00482106 50.9564 0.374026 49.1885C0.770035 47.3408 1.57728 45.8837 3.10547 44.3555C4.55874 42.9022 6.16923 42.021 8.09473 41.168L8.95508 40.7959C9.84407 40.4196 10.8186 40.0258 11.8623 39.5869L13.1035 39.0547C14.0459 38.1905 14.5963 37.539 14.9336 36.875C15.2391 36.2735 15.4027 35.5964 15.4541 34.626C14.8247 33.8733 14.3675 33.2376 14.0186 32.5928C13.6747 31.9573 13.4524 31.3445 13.2549 30.6572C12.3835 29.9809 11.743 29.2572 11.4766 28.3154C11.2017 27.344 11.3804 26.3262 11.7188 25.2266V20.6875C11.7188 18.9637 12.5679 17.3313 13.6123 16.1562C14.1419 15.5604 14.749 15.0491 15.3789 14.6816C15.9983 14.3204 16.7013 14.0625 17.4063 14.0625H20.2188C20.771 14.0625 21.2188 14.5102 21.2188 15.0625C21.2188 15.6148 20.771 16.0625 20.2188 16.0625H17.4063C17.1738 16.0625 16.822 16.1562 16.3867 16.4102C15.962 16.658 15.5143 17.0256 15.1064 17.4844C14.2759 18.4187 13.7188 19.5988 13.7188 20.6875V25.5303L13.6719 25.6787C13.3245 26.7693 13.2823 27.3524 13.4004 27.7705C13.4979 28.1151 13.7484 28.4973 14.4053 29.0205L14.7129 29.2539L14.999 29.4619L15.0908 29.8037C15.2921 30.5551 15.4821 31.0959 15.7773 31.6416C16.0764 32.1942 16.506 32.7921 17.2266 33.6279L17.4775 33.9199L17.4688 34.3047C17.4376 35.6493 17.2427 36.746 16.7168 37.7812C16.1994 38.7998 15.4029 39.6745 14.3272 40.6475L14.2061 40.7568L14.0566 40.8223L12.6377 41.4307C11.5531 41.8867 10.6078 42.2683 9.74414 42.6338L8.90528 42.9961C7.068 43.8101 5.71747 44.5716 4.51953 45.7695C3.23535 47.0537 2.63626 48.175 2.3291 49.6084C2.04442 50.9373 2.00811 52.5405 2.00293 54.8438H3.40625V61C3.40625 61.5523 2.95854 62 2.40625 62C1.85397 62 1.40625 61.5523 1.40625 61ZM21.0938 10.375V0H62V53.5625H44.125C43.5727 53.5625 43.125 53.1148 43.125 52.5625C43.125 52.0102 43.5727 51.5625 44.125 51.5625H60V2H23.0938V10.375C23.0938 10.9273 22.646 11.375 22.0938 11.375C21.5415 11.375 21.0938 10.9273 21.0938 10.375Z" fill="#BEBFBA"/>
</svg>
