<svg width="78" height="62" viewBox="0 0 78 62" fill="none" xmlns="http://www.w3.org/2000/svg">
<path d="M51.2676 44.8589L51.3682 44.8698C51.596 44.9171 51.7674 45.1216 51.7676 45.3671C51.7676 45.6128 51.5962 45.8181 51.3682 45.8654L51.2676 45.8753H1.5V55.3315H6.98438L7.08496 55.3414C7.31283 55.3888 7.48438 55.5941 7.48438 55.8397C7.48418 56.0851 7.31268 56.2896 7.08496 56.337L6.98438 56.3479H0.5V44.8589H51.2676ZM54.8584 55.3315L54.959 55.3414C55.1869 55.3888 55.3584 55.5941 55.3584 55.8397C55.3582 56.0851 55.1867 56.2896 54.959 56.337L54.8584 56.3479H22.543C22.2671 56.3477 22.0432 56.1201 22.043 55.8397C22.043 55.5592 22.267 55.3317 22.543 55.3315H54.8584ZM61.3428 42.3953H76.0723L71.544 35.4037H61.3428V42.3953ZM35.8066 40.44V13.2276H12.8701V40.44C12.8699 40.7204 12.6461 40.9481 12.3701 40.9482C12.0941 40.9482 11.8704 40.7204 11.8701 40.44V12.2112H36.8066V40.44C36.8064 40.7204 36.5826 40.9482 36.3066 40.9482C36.0309 40.9479 35.8069 40.7203 35.8066 40.44ZM41.1934 40.44V8.30049H7.48438V40.44C7.48412 40.7204 7.26031 40.9481 6.98438 40.9482C6.70839 40.9482 6.48463 40.7204 6.48438 40.44V7.2841H42.1934V40.44C42.1931 40.7203 41.9691 40.9479 41.6934 40.9482C41.4174 40.9482 41.1936 40.7204 41.1934 40.44ZM19.3086 30.3247C19.1147 30.5243 18.7981 30.5266 18.6016 30.3296C18.4052 30.1326 18.403 29.8108 18.5967 29.611L19.3086 30.3247ZM24.0605 24.001C24.2538 23.8694 24.5175 23.8899 24.6895 24.0625C24.886 24.2597 24.8884 24.5814 24.6943 24.7812L19.3086 30.3247L18.9531 29.9673L18.5967 29.611L23.9824 24.0665L24.0605 24.001ZM21.667 18.4575C21.8602 18.3258 22.1239 18.3456 22.2959 18.518C22.4923 18.7152 22.4947 19.0369 22.3008 19.2366L18.71 22.933C18.5159 23.1325 18.1994 23.1341 18.0029 22.937C17.8067 22.7397 17.8051 22.418 17.999 22.2183L21.5889 18.523L21.667 18.4575ZM29.4463 18.4575C29.6396 18.3257 29.9041 18.3453 30.0762 18.518C30.2725 18.7152 30.274 19.037 30.0801 19.2366L27.6865 21.7012C27.4925 21.9007 27.1759 21.9023 26.9795 21.7052C26.7831 21.508 26.7807 21.1863 26.9746 20.9866L29.3682 18.523L29.4463 18.4575ZM13.0674 2.86418V0.507812H48.1768V40.44C48.1765 40.7204 47.9527 40.9482 47.6768 40.9482C47.401 40.9479 47.177 40.7203 47.1768 40.44V1.52421H14.0674V2.86418C14.0673 3.1446 13.8433 3.37213 13.5674 3.37237C13.2913 3.37237 13.0675 3.14476 13.0674 2.86418ZM77.5 53.3891L77.499 53.4039C77.4485 54.3274 77.2968 55.0944 76.7988 55.6164C76.2946 56.1446 75.5465 56.3081 74.627 56.3469L74.6162 56.3479H69.8193C69.5433 56.3479 69.3196 56.1202 69.3193 55.8397C69.3193 55.559 69.5432 55.3315 69.8193 55.3315H74.5859C75.463 55.2944 75.8627 55.1375 76.0811 54.9087C76.3041 54.6748 76.4501 54.2511 76.5 53.3603V48.6475H72.8106C72.5346 48.6473 72.3106 48.4199 72.3106 48.1393C72.3106 47.8589 72.5346 47.6314 72.8106 47.6311H76.5V43.4117H60.3428V34.3873H70.8858L68.3516 30.4755H57.8897C57.0513 30.5806 56.6473 30.7629 56.416 31.0095C56.1831 31.258 56.037 31.664 55.957 32.4567V48.447C55.957 48.7276 55.733 48.9551 55.457 48.9552C55.1809 48.9552 54.957 48.7277 54.957 48.447V32.4061L54.959 32.3813L54.9951 32.0696C55.0898 31.3584 55.2713 30.7571 55.6914 30.3088C56.1738 29.794 56.8808 29.5748 57.79 29.4631L57.8203 29.4591H68.8916L77.418 42.6236L77.5 42.7517V53.3891Z" fill="#BEBFBA"/>
<path d="M69.417 55.8406C69.417 52.9877 67.1734 50.6971 64.4326 50.6971C61.6918 50.6971 59.4483 52.9877 59.4482 55.8406C59.4482 58.6934 61.6918 60.9841 64.4326 60.9841V62.0005L64.125 61.9925C61.0648 61.8331 58.611 59.3072 58.4561 56.1572L58.4482 55.8406C58.4483 52.4385 61.1276 49.6807 64.4326 49.6807L64.7402 49.6886C67.9022 49.8535 70.417 52.5448 70.417 55.8406L70.4092 56.1572C70.2491 59.412 67.6344 62.0004 64.4326 62.0005V60.9841C67.1734 60.984 69.417 58.6934 69.417 55.8406Z" fill="#BEBFBA"/>
<path d="M17.9531 55.8406C17.9531 52.9877 15.7095 50.6971 12.9688 50.6971C10.2279 50.6971 7.98438 52.9877 7.98438 55.8406C7.98438 58.6934 10.2279 60.9841 12.9688 60.9841V62.0005L12.6611 61.9925C9.6009 61.8331 7.14713 59.3072 6.99219 56.1572L6.98438 55.8406C6.98438 52.4385 9.66374 49.6807 12.9688 49.6807L13.2764 49.6886C16.4384 49.8535 18.9531 52.5448 18.9531 55.8406L18.9453 56.1572C18.7852 59.412 16.1706 62.0004 12.9688 62.0005V60.9841C15.7095 60.984 17.9531 58.6934 17.9531 55.8406Z" fill="#BEBFBA"/>
<path d="M6.98438 44.3511L7.08691 44.357C7.59085 44.4093 7.98421 44.8415 7.98438 45.3675C7.98438 45.8936 7.59097 46.3267 7.08691 46.3789L6.98438 46.3839H2V54.8237H6.98438L7.08691 54.8287C7.59096 54.8809 7.98438 55.314 7.98438 55.8401C7.98416 56.366 7.59082 56.7983 7.08691 56.8505L6.98438 56.8565H0V44.3511H6.98438ZM54.8584 54.8237L54.9609 54.8287C55.465 54.8809 55.8584 55.314 55.8584 55.8401C55.8582 56.366 55.4648 56.7983 54.9609 56.8505L54.8584 56.8565H22.543C21.991 56.8563 21.5432 56.4011 21.543 55.8401C21.543 55.2789 21.9908 54.8239 22.543 54.8237H54.8584ZM76 43.2076L68.083 30.9841H57.9219C57.1356 31.0858 56.8836 31.2469 56.7773 31.3603C56.6665 31.4786 56.5352 31.7332 56.457 32.4898V48.4474C56.457 49.0086 56.0092 49.4636 55.457 49.4638C54.9047 49.4638 54.457 49.0088 54.457 48.4474V32.3817L54.4619 32.331C54.547 31.464 54.7274 30.6019 55.3301 29.9588C55.9372 29.3111 56.7928 29.0744 57.7305 28.9593L57.79 28.9513H69.1611L77.835 42.3451L78 42.5992V53.4043L77.998 53.4321C77.9469 54.3679 77.7926 55.3056 77.1572 55.9711C76.5101 56.6489 75.5881 56.8157 74.6475 56.8555L74.627 56.8565H69.8193C69.2672 56.8565 68.8196 56.4012 68.8193 55.8401C68.8193 55.2788 69.2671 54.8237 69.8193 54.8237H74.5645C75.4198 54.7876 75.6459 54.6349 75.7217 54.5557C75.8081 54.4652 75.9501 54.2125 76 53.3448V43.2076ZM5.98438 40.4403V6.77629H13.5674L13.6689 6.78125C14.1733 6.8332 14.5674 7.26635 14.5674 7.79268C14.5672 8.31883 14.1732 8.75117 13.6689 8.80312L13.5674 8.80907H7.98438V40.4403C7.98412 41.0014 7.53645 41.4567 6.98438 41.4567C6.43225 41.4567 5.98463 41.0015 5.98438 40.4403ZM12.5674 2.86456V0H48.6768V40.4403C48.6765 41.0015 48.2289 41.4567 47.6768 41.4567C47.1248 41.4565 46.677 41.0013 46.6768 40.4403V2.03279H14.5674V2.86456C14.5673 3.42566 14.1194 3.88071 13.5674 3.88096C13.0152 3.88096 12.5675 3.42581 12.5674 2.86456Z" fill="#BEBFBA"/>
</svg>
