<svg width="66" height="62" viewBox="0 0 66 62" fill="none" xmlns="http://www.w3.org/2000/svg">
<path d="M65.7061 57.3871L61.1504 61.9996L60.7959 61.6424L60.4424 61.2851L63.7949 57.8923H2.20508L5.55762 61.2851L5.20312 61.6424L4.84961 61.9996L0.293945 57.3871L4.84961 52.7755L5.20312 53.1327L5.55762 53.49L2.20605 56.8818H63.7939L60.4424 53.49L60.7959 53.1327L61.1504 52.7755L65.7061 57.3871ZM59.1943 41.9902H64.5V28.1081H59.1943V41.9902ZM37.2812 12.7113C37.2812 10.1447 36.5197 7.34809 34.6475 5.20033C32.7865 3.06551 29.7798 1.51545 25.1709 1.51542H16.7637C13.1709 1.51542 9.33386 2.55673 6.40918 4.61611C3.49742 6.66639 1.5 9.71359 1.5 13.7751C1.50007 19.3021 3.87084 23.7276 8.57227 25.9992L8.8457 26.1265C10.2285 26.7462 11.8149 27.0975 13.6104 27.0976H65.5V43.0007H14.6621C6.11345 43.0007 0.671615 36.5959 0.503906 30.0424L0.5 29.7305V13.7751C0.5 9.32701 2.70622 5.99177 5.83691 3.78715C8.95492 1.59165 13.0001 0.504883 16.7637 0.504883H25.1709C30.02 0.504911 33.3186 2.14629 35.3984 4.53223C37.467 6.90527 38.2812 9.95923 38.2812 12.7113V23.3485H37.2812V16.0715C35.7672 18.5485 32.5023 20.6623 27.2725 20.6623H16.7637C14.5855 20.6623 12.6239 20.112 11.1963 18.9561C9.75383 17.788 8.90729 16.0417 8.90723 13.7751C8.90723 11.4564 10.0601 9.71912 11.6084 8.57931C13.1447 7.4484 15.0889 6.88686 16.7637 6.88686H25.1709C28.5357 6.88691 30.3994 8.91444 30.3994 11.1155C30.3994 13.3166 28.5357 15.3441 25.1709 15.3442H16.7637V14.3336H25.1709C28.1114 14.3336 29.3994 12.6374 29.3994 11.1155C29.3994 9.59362 28.1114 7.89744 25.1709 7.8974H16.7637C15.2858 7.8974 13.551 8.39989 12.1973 9.39642C10.8557 10.3841 9.90723 11.839 9.90723 13.7751C9.90729 15.7631 10.6367 17.2083 11.8213 18.1676C13.021 19.139 14.7383 19.6518 16.7637 19.6518H27.2725C34.4332 19.6518 37.2811 15.5482 37.2812 12.7113ZM1.51465 30.3029C1.81746 36.2134 6.78587 41.9902 14.6621 41.9902H58.1943V28.1081H49.8418V33.9858H48.8418V28.1081H36.1797V33.9858H35.1797V28.1081H22.5176V33.9858H21.5176V28.1081H13.6104C11.8558 28.1081 10.2703 27.7932 8.85645 27.2249V30.7943H7.85645V26.767C4.75411 25.1846 2.63909 22.7106 1.5 19.6577V29.7305L1.51465 30.3029Z" fill="#BEBFBA"/>
<path d="M36.7812 12.7116C36.7812 10.2379 36.0465 7.56938 34.2725 5.53427C32.5209 3.52507 29.6596 2.0211 25.1709 2.02107H16.7637C13.2565 2.02107 9.52331 3.03976 6.69531 5.03097C3.89314 7.00409 2 9.90737 2 13.7755V29.7309L2.01367 30.2776C2.30326 35.9218 7.05425 41.4853 14.6621 41.4853H64V28.6138H35.6797V26.5927H66V43.5064H14.6621C5.84121 43.5064 0.178861 36.8821 0.00390625 30.0566L0 29.7309V13.7755C0 9.1338 2.31124 5.65484 5.55176 3.37306C8.76642 1.10949 12.9146 0 16.7637 0H25.1709C30.1399 2.8742e-05 33.5841 1.68673 35.7734 4.19807C37.9403 6.68379 38.7812 9.86677 38.7812 12.7116V23.3489H36.7812V12.7116Z" fill="#BEBFBA"/>
</svg>
