<svg width="132" height="626" viewBox="0 0 132 626" fill="none" xmlns="http://www.w3.org/2000/svg">
<g clip-path="url(#clip0_2085_25)">
<path d="M1.40077 523.326L56.7008 565.501L41.6508 564.976L95.5508 524.551V555.176L60.3758 580.726L60.0258 569.176L95.5508 595.601V624.651L42.1758 584.051H56.8758L1.40077 626.051V595.076L38.8508 568.301L37.2758 579.676L1.40077 553.076V523.326Z" fill="white"/>
<path d="M-0.000778198 482.864C-0.000778198 472.13 2.09921 462.68 6.29921 454.514C10.4992 446.464 16.2159 440.222 23.4492 435.789C30.7992 431.355 39.1409 429.139 48.4742 429.139C57.9242 429.139 66.2659 431.297 73.4992 435.614C80.8492 440.047 86.5659 446.055 90.6492 453.639C94.8492 461.222 96.9492 469.797 96.9492 479.364C96.9492 488.58 94.9659 496.864 90.9992 504.214C87.1492 511.68 81.5492 517.572 74.1992 521.889C66.9659 526.205 58.2742 528.364 48.1242 528.364C47.0742 528.364 45.8492 528.305 44.4492 528.189C43.1659 528.072 41.9409 527.955 40.7742 527.839L40.7742 451.364H56.6992L56.6992 513.489L51.9742 502.989C56.8742 502.989 61.1326 501.997 64.7492 500.014C68.3659 498.03 71.1659 495.289 73.1492 491.789C75.2492 488.289 76.2992 484.205 76.2992 479.539C76.2992 474.872 75.2492 470.73 73.1492 467.114C71.1659 463.614 68.3075 460.872 64.5742 458.889C60.9576 456.905 56.6409 455.914 51.6242 455.914H47.4242C42.2909 455.914 37.7409 457.022 33.7742 459.239C29.9242 461.572 26.9492 464.78 24.8492 468.864C22.8659 473.064 21.8742 477.964 21.8742 483.564C21.8742 488.58 22.6325 492.955 24.1492 496.689C25.6659 500.539 27.9409 504.039 30.9742 507.189L15.2242 521.714C10.3242 517.397 6.53255 511.972 3.84921 505.439C1.28255 498.905 -0.000778198 491.38 -0.000778198 482.864Z" fill="white"/>
<path d="M96.9492 381.235C96.9492 388.702 95.4326 395.293 92.3992 401.01C89.4826 406.843 84.9326 411.393 78.7492 414.66C72.6826 418.043 64.8659 419.735 55.2992 419.735H1.39922V392.435H51.0992C58.6826 392.435 64.2826 390.86 67.8992 387.71C71.5159 384.56 73.3242 380.127 73.3242 374.41C73.3242 370.443 72.3909 366.885 70.5242 363.735C68.7742 360.585 66.0909 358.135 62.4742 356.385C58.8576 354.635 54.2492 353.76 48.6492 353.76H1.39922V326.46H51.0992C58.6826 326.46 64.2826 324.885 67.8992 321.735C71.5159 318.702 73.3242 314.327 73.3242 308.61C73.3242 304.643 72.3909 301.085 70.5242 297.935C68.7742 294.785 66.0909 292.335 62.4742 290.585C58.8576 288.835 54.2492 287.96 48.6492 287.96H1.39922V260.66H95.5492V286.735H69.8242L77.3492 281.835C83.7659 285.102 88.6076 289.71 91.8742 295.66C95.2576 301.727 96.9492 308.61 96.9492 316.31C96.9492 324.943 94.7325 332.468 90.2992 338.885C85.9826 345.418 79.3326 349.735 70.3492 351.835L72.9742 342.21C80.3242 345.36 86.1575 350.377 90.4742 357.26C94.7909 364.26 96.9492 372.252 96.9492 381.235Z" fill="white"/>
<path d="M0.000778198 188.994C0.000778198 181.177 1.51743 174.177 4.55077 167.994C7.5841 161.927 12.1924 157.202 18.3758 153.819C24.6758 150.436 32.6674 148.744 42.3508 148.744H95.5508V176.044H46.3758C38.5591 176.044 32.7841 177.677 29.0508 180.944C25.4341 184.327 23.6258 189.052 23.6258 195.119C23.6258 199.319 24.5008 203.052 26.2508 206.319C28.1174 209.586 30.9174 212.152 34.6508 214.019C38.5008 215.886 43.2841 216.819 49.0008 216.819H95.5508V244.119H1.40077V218.219H27.3008L19.7758 222.944C13.2424 219.794 8.28411 215.127 4.90077 208.944C1.63411 202.877 0.000778198 196.227 0.000778198 188.994Z" fill="white"/>
<path d="M1.39999 105.383L131.25 105.383V132.683H1.39999V105.383Z" fill="white"/>
<path d="M1.39922 63.875H19.7742L23.7992 62.125L56.6992 62.125C62.5326 62.125 67.0826 60.3167 70.3492 56.7C73.6159 53.2 75.2492 47.775 75.2492 40.425C75.2492 35.4083 74.4326 30.45 72.7992 25.55C71.2825 20.7667 69.1825 16.6833 66.4992 13.3L85.5742 3.5C89.1909 8.63333 91.9909 14.8167 93.9742 22.05C95.9575 29.2833 96.9492 36.6333 96.9492 44.1C96.9492 58.45 93.5659 69.5917 86.7992 77.525C80.0326 85.4583 69.4742 89.425 55.1242 89.425H1.39922V63.875ZM-0.000778198 35.175C-0.000778198 27.825 1.22421 21.525 3.67421 16.275C6.24088 11.025 9.68255 7 13.9992 4.2C18.3159 1.4 23.1575 0 28.5242 0C34.1242 0 39.0242 1.34167 43.2242 4.025C47.4242 6.825 50.6909 11.2 53.0242 17.15C55.4742 23.1 56.6992 30.8583 56.6992 40.425L56.6992 65.45H40.7742L40.7742 43.4C40.7742 36.9833 39.7242 32.55 37.6242 30.1C35.5242 27.7667 32.8992 26.6 29.7492 26.6C26.2492 26.6 23.4492 27.9417 21.3492 30.625C19.3659 33.425 18.3742 37.2167 18.3742 42C18.3742 46.55 19.4242 50.6333 21.5242 54.25C23.7409 57.8667 26.9492 60.4917 31.1492 62.125L18.5492 66.325C12.4825 64.3417 7.87421 60.725 4.72421 55.475C1.57421 50.225 -0.000778198 43.4583 -0.000778198 35.175Z" fill="white"/>
</g>
<defs>
<clipPath id="clip0_2085_25">
<rect width="132" height="626" fill="white"/>
</clipPath>
</defs>
</svg>
