<?xml version="1.0" encoding="utf-8"?><svg viewBox="0 0 36 36" xmlns="http://www.w3.org/2000/svg" xmlns:xlink="http://www.w3.org/1999/xlink"><style>:root>svg{display:none}:root>svg:target{display:block}</style><svg viewBox="0 0 24 24" id="arrow-type-1" xmlns="http://www.w3.org/2000/svg"><path d="M13.465 8.146a.5.5 0 01.707 0l3.181 3.182a.5.5 0 010 .707l-3.181 3.182a.5.5 0 01-.707-.707l2.328-2.328H6v-1h9.793l-2.328-2.329a.5.5 0 010-.707z"/></svg><svg fill="none" viewBox="0 0 24 24" id="checked" xmlns="http://www.w3.org/2000/svg"><path d="M24 12c0 6.627-5.373 12-12 12S0 18.627 0 12 5.373 0 12 0s12 5.373 12 12z" fill="#fff"/><path d="M23 12c0-6.075-4.925-11-11-11S1 5.925 1 12s4.925 11 11 11v1C5.373 24 0 18.627 0 12S5.373 0 12 0s12 5.373 12 12-5.373 12-12 12v-1c6.075 0 11-4.925 11-11z" fill="#A4A472"/><path d="M17.854 8.854L11 15.707l-4.354-4.354.708-.707L11 14.293l6.146-6.147.707.708z" fill="#A4A472"/></svg><svg viewBox="0 0 30 30" id="close" xmlns="http://www.w3.org/2000/svg"><path fill-rule="evenodd" clip-rule="evenodd" d="M6.952 6.951a1.2 1.2 0 011.697 0L15 13.303l6.352-6.352a1.2 1.2 0 111.697 1.698L16.697 15l6.352 6.352a1.2 1.2 0 11-1.697 1.697L15 16.697 8.65 23.05a1.2 1.2 0 11-1.697-1.697L13.303 15 6.952 8.649a1.2 1.2 0 010-1.698z"/></svg><svg viewBox="0 0 24 24" id="phone-fill" xmlns="http://www.w3.org/2000/svg"><path d="M17.35 22.044a10.16 10.16 0 01-.589-.147c-.233-.058-.618-.14-.844-.176a3.41 3.41 0 01-.656-.177 4.783 4.783 0 00-.626-.198c-.204-.044-.445-.125-.528-.177a3.209 3.209 0 00-.452-.184 4.974 4.974 0 01-.641-.265c-.189-.095-.392-.176-.468-.176a.431.431 0 01-.249-.118 1.178 1.178 0 00-.362-.206c-.203-.073-.7-.324-1.108-.566a5.996 5.996 0 00-.385-.206 1.87 1.87 0 01-.362-.258c-.06-.066-.15-.118-.203-.118-.06 0-.166-.058-.242-.125a5.577 5.577 0 00-.588-.426c-.716-.464-1.259-.935-2.745-2.391-1.65-1.604-2.435-2.494-3.099-3.495-.105-.162-.256-.39-.339-.507-.407-.589-1.161-1.98-1.161-2.134 0-.059-.053-.14-.113-.191-.06-.052-.136-.206-.159-.36a5.662 5.662 0 00-.241-.744C1.024 8.265 1 8.12 1 7.081c-.007-1.104.008-1.162.242-1.84.135-.382.294-.75.354-.816.06-.059.106-.14.106-.176 0-.118.686-1.067 1.01-1.398.28-.287.483-.427 1.101-.75.272-.14 1.825-.133 2.104.014.286.14.558.464.754.898.098.19.249.522.347.72l.37.773c.105.22.195.449.195.5 0 .052.068.221.151.368.385.706.558 1.229.588 1.84.023.61.023.617-.264 1.03-.158.227-.346.47-.414.544-.076.073-.136.154-.136.19 0 .03-.15.214-.34.406-.716.728-.678 1.213.19 2.442a15.64 15.64 0 002.932 3.09c.302.243.634.515.74.61.098.089.21.162.24.162.031 0 .121.066.19.14.075.081.24.184.369.236.136.051.294.132.354.183.159.125 1.056.589 1.282.655.106.03.234.088.287.133.06.044.324.154.595.25.46.154.498.154.687.044.226-.133 1.191-1.096 1.689-1.685.482-.559.739-.713 1.221-.706.302 0 .513.059.837.228.242.125.475.228.528.228.053 0 .136.051.189.11.052.067.241.148.422.192.18.044.37.125.415.184.045.058.226.14.4.184.165.044.391.14.497.213.106.073.294.154.43.176.136.03.317.11.415.184.098.074.279.155.4.184.127.03.316.14.437.25.18.17.203.243.203.677 0 .331-.06.655-.188 1.015-.106.287-.189.574-.189.633 0 .177-.626.868-1.214 1.339-1.018.817-2.157 1.265-3.34 1.317-.378.015-.755.015-.837-.008z"/></svg><svg viewBox="0 0 24 24" id="phone-outline" xmlns="http://www.w3.org/2000/svg"><path d="M12.39 21.407l.095.005c-.044 0-.085-.005-.126-.01l.03.005zm-.843-.402a1.324 1.324 0 01-.012-.012l.005-.013.024-.025-.017.05zm.017-.05l-.024.025.337-.92-.313.895zm.563-6.181l-.005-.006-.013-.013.018.019zm7.187-.767h-.002l-.096-.005c.034 0 .066.002.098.005zM.7 9.371a.9.9 0 00.006.096C.703 9.437.7 9.404.7 9.37zm7.749-.88l.008-.04-.008.04zm.084-4.462c.005.04.01.083.01.127l-.005-.067c0-.018 0-.033-.002-.045 0-.005-.002-.01-.003-.014zm4.197 11.074a3.467 3.467 0 00.13.081 10.157 10.157 0 00.697.376c.123.06.157.07.13.063.108.032.213.074.303.118.054.026.143.072.236.137.017.008.04.02.072.034.08.035.184.076.293.116a17.559 17.559 0 001.282-1.394l.006-.007.192-.226c.198-.222.414-.43.666-.584a2.023 2.023 0 011.12-.291h.015c.493.002.86.124 1.287.358.106.057.203.106.272.137l.023.01a1.227 1.227 0 01.569.302c.013.005.028.012.043.016.145.037.293.09.425.15.066.03.143.07.22.12.03.019.082.053.142.104l.034.012.01.003.195.064c.207.075.444.187.618.314l-.015-.01.03.014.015.006.003.001.005.001.026.006.206.06c.211.074.431.188.598.32l-.02-.015.025.013a.504.504 0 00.034.015l.006.002-.013-.004c.196.05.368.14.486.21.066.04.133.085.198.135l.191.162.009.008.108.112c.116.13.248.317.324.583.075.262.074.546.074.742 0 .474-.084.924-.242 1.39l-.003.011-.938-.34a3.42 3.42 0 00.176-.802l.012-.26c0-.34-.013-.468-.095-.586l-.107-.12a1.277 1.277 0 00-.33-.225l-.106-.038a1.332 1.332 0 01-.312-.133l-.172-.117a1.351 1.351 0 00-.218-.102l-.108-.032a1.177 1.177 0 01-.336-.126l-.092-.059a1.873 1.873 0 00-.495-.222c-.173-.046-.353-.132-.398-.193-.033-.046-.148-.105-.279-.152l-.134-.04c-.18-.046-.367-.13-.42-.2a.392.392 0 00-.143-.106l-.044-.01a.753.753 0 01-.192-.07l-.334-.168c-.242-.133-.42-.2-.622-.226l-.21-.012c-.48-.008-.736.153-1.216.738-.495.615-1.456 1.623-1.681 1.761l-.122.065c-.11.04-.218.01-.56-.111-.27-.1-.533-.215-.593-.261a.914.914 0 00-.286-.139c-.225-.07-1.117-.553-1.275-.684a1.488 1.488 0 00-.353-.192 1.202 1.202 0 01-.368-.246c-.068-.077-.158-.147-.188-.147a.264.264 0 01-.094-.05l-.146-.12c-.105-.1-.434-.384-.734-.637a16.05 16.05 0 01-2.92-3.23c-.862-1.284-.9-1.792-.187-2.553.14-.15.26-.296.311-.372l.026-.052c0-.02.016-.05.04-.085l.095-.115c.068-.077.256-.33.413-.569.286-.43.285-.439.263-1.077-.027-.558-.161-1.046-.451-1.654l-.134-.268c-.083-.154-.15-.33-.15-.385 0-.027-.023-.1-.058-.195l-.137-.328-.369-.807c-.097-.208-.247-.554-.344-.754-.196-.454-.466-.792-.75-.938C5.611.98 4.066.972 3.795 1.118c-.615.338-.818.485-1.096.785-.323.346-1.004 1.337-1.005 1.46l-.009.037a.46.46 0 01-.097.149l-.06.106c-.077.156-.19.447-.291.747L1.1 4.84c-.102.37-.11.62-.103 1.486l.006.657c.014.523.057.695.181 1.035.105.277.211.623.241.777.023.161.097.323.157.377.06.054.113.138.113.2l.008.044c.083.295.768 1.608 1.148 2.185.082.123.232.363.337.532.66 1.046 1.44 1.976 3.084 3.653 1.478 1.522 2.018 2.015 2.73 2.499.248.17.512.37.587.446.075.07.18.13.24.13.052 0 .142.055.202.124.053.062.218.185.36.27.15.076.323.176.383.214.406.254.9.516 1.103.593l-.337.919-.005.013c0-.002-.003-.002-.004-.003.01.01.019.02.026.025l.016.014-.026-.024.33-.944c.128.046.292.146.36.215a.42.42 0 00.248.123c.075 0 .277.085.465.185.188.1.473.223.638.277.165.054.368.146.45.192.083.054.323.139.525.185.21.054.488.145.623.207.135.061.428.146.653.185.225.038.608.123.84.185.24.069.503.138.586.153.041.012.156.018.307.019l.526-.011c1.178-.054 2.31-.523 3.324-1.377.548-.461 1.13-1.125 1.201-1.358l.007-.042c0-.062.082-.361.187-.66l.937.34a6.296 6.296 0 00-.139.454c-.023.196-.09.343-.116.4-.047.099-.103.19-.152.262a4.82 4.82 0 01-.354.457 8.663 8.663 0 01-.938.928c-1.159.977-2.494 1.543-3.913 1.608h-.005c-.198.008-.402.013-.572.012-.084 0-.169-.003-.244-.007a1.906 1.906 0 01-.235-.032v.003c-.017-.003-.037-.01-.06-.015-.008-.002-.016-.001-.025-.004v-.002c-.15-.034-.384-.095-.572-.149v.001a10.851 10.851 0 00-.755-.166 4.185 4.185 0 01-.894-.26 3.855 3.855 0 00-.46-.149 3.921 3.921 0 01-.39-.114 2.278 2.278 0 01-.37-.167v.001a2.188 2.188 0 00-.275-.115 5.777 5.777 0 01-.796-.344 2.318 2.318 0 00-.175-.083 1.335 1.335 0 01-.385-.122 1.471 1.471 0 01-.348-.24l-.007-.004a.382.382 0 00-.029-.016c-.002 0-.004-.002-.005-.003h-.004l-.007-.003c-.293-.111-.854-.414-1.277-.678l-.017-.012-.025-.015-.078-.045a5.01 5.01 0 00-.188-.102l-.028-.014-.026-.016a3.553 3.553 0 01-.301-.2 2.678 2.678 0 01-.158-.13 1.428 1.428 0 01-.194-.087 1.679 1.679 0 01-.317-.23l-.02-.018-.007-.008-.02-.016c-.026-.021-.062-.052-.108-.087a7.857 7.857 0 00-.314-.226c-.806-.547-1.409-1.107-2.887-2.63-1.45-1.48-2.273-2.422-2.937-3.396l-.28-.427c-.106-.17-.247-.395-.318-.5l-.005-.008c-.232-.352-.54-.907-.784-1.378-.123-.239-.239-.47-.325-.66a4.685 4.685 0 01-.116-.276C.79 9.824.78 9.79.767 9.754A1.608 1.608 0 01.58 9.43a1.946 1.946 0 01-.13-.44l-.002-.005-.017-.071a6.384 6.384 0 00-.174-.531l-.005-.015a3.398 3.398 0 01-.21-.844 6.033 6.033 0 01-.033-.513l-.007-.686c-.003-.552-.003-.93.04-1.26.046-.36.14-.644.252-.984l.003-.008.114-.321c.038-.104.077-.203.114-.292.037-.088.075-.177.113-.255.015-.03.063-.133.139-.24.02-.054.04-.102.057-.135a3.1 3.1 0 01.123-.224c.084-.141.193-.307.306-.47a9.2 9.2 0 01.717-.93c.383-.414.692-.62 1.344-.98l.006-.002.128-.06c.125-.05.24-.076.306-.089A3.5 3.5 0 014.107.03 7.71 7.71 0 014.846 0c.25.002.512.013.741.038a3.5 3.5 0 01.346.053c.086.018.243.057.402.14l.001-.002.011.007c.006.003.012.004.017.008v.002c.546.291.928.838 1.167 1.376l.351.766.006.013.368.806c.06.134.118.273.163.393.022.06.045.124.064.187.002.008.022.071.038.16l.02.047.033.067.004.007c.373.719.598 1.34.675 2.041l.024.306v.012c.009.252.03.588-.044.895-.084.346-.275.614-.388.784-.16.242-.372.533-.488.668l-.012.028c-.029.055-.058.1-.076.127a2.552 2.552 0 01-.12.165c-.08.101-.185.219-.295.336h.001c-.143.154-.197.242-.217.284-.01.022-.009.02-.008.023a.875.875 0 00.095.275c.082.172.213.396.416.698.658.97 1.501 1.93 2.36 2.702l.369.318.007.006.45.385c.142.122.263.23.329.292.029.014.055.024.074.035.07.039.128.081.17.113.068.053.136.118.2.186l.013.008c.01.007.02.014.03.019l.011.006c.002.001.002.001 0 0 .1.04.2.089.29.138.065.035.178.099.285.185z"/></svg><svg viewBox="0 0 36 36" id="plus-type-1" xmlns="http://www.w3.org/2000/svg"><path d="M19 36h-1V0h1v36z"/><path d="M36 17v1H0v-1h36z"/></svg><svg fill="none" viewBox="0 0 36 36" id="whatsapp-logo" xmlns="http://www.w3.org/2000/svg"><path d="M16.299 35.036c-2.084-.131-4.25-.729-6.177-1.705-1.822-.933-1.837-.933-2.143-.853-.15.037-.665.175-1.136.306-1.292.35-2.517.656-3.062.765-.269.059-.68.168-.91.248-.24.088-.516.153-.613.153-.105 0-.27.03-.374.073-.164.058-.209.044-.313-.11-.105-.16-.105-.218.037-.742.082-.314.172-.649.202-.751.074-.306.373-1.348.814-2.864.575-1.96.575-1.982-.075-3.038-1.076-1.77-1.875-3.716-2.248-5.465-.374-1.763-.403-4.612-.067-6.375.179-.962.814-3.155 1.135-3.928.821-1.974 2.069-3.781 3.757-5.443a18.554 18.554 0 014.959-3.49C11.825.979 13.087.578 15.17.207c1.113-.197 3.51-.27 4.66-.146 1.352.153 3.69.678 4.444.991.127.051.5.204.83.342 1.306.525 2.83 1.436 4.107 2.441 4.033 3.17 6.43 7.746 6.751 12.883.24 3.796-.694 7.308-2.755 10.317C31.243 29.9 28.89 31.961 26 33.331c-3.129 1.486-5.765 1.945-9.701 1.705z" fill="#A4A472"/><path d="M23.162 27.421c-.082-.014-.343-.08-.582-.145a12.222 12.222 0 00-.837-.175 3.378 3.378 0 01-.65-.175 4.742 4.742 0 00-.62-.197c-.201-.044-.44-.124-.522-.175a3.192 3.192 0 00-.449-.182 4.923 4.923 0 01-.634-.262c-.187-.095-.389-.175-.463-.175a.426.426 0 01-.247-.117 1.17 1.17 0 00-.358-.204c-.202-.073-.695-.32-1.098-.56a5.948 5.948 0 00-.381-.205 1.859 1.859 0 01-.359-.255c-.06-.065-.15-.116-.201-.116-.06 0-.165-.059-.24-.124a5.512 5.512 0 00-.582-.423c-.71-.459-1.247-.925-2.718-2.368-1.636-1.588-2.413-2.47-3.07-3.461-.105-.16-.254-.386-.336-.503-.403-.583-1.15-1.96-1.15-2.113 0-.058-.053-.138-.112-.19-.06-.05-.135-.203-.157-.356a5.609 5.609 0 00-.24-.736c-.163-.43-.186-.576-.186-1.603-.007-1.093.008-1.152.24-1.822.134-.379.29-.743.35-.809.06-.058.105-.138.105-.175 0-.116.68-1.056 1-1.384.277-.284.479-.423 1.09-.743.27-.139 1.808-.131 2.085.014.284.139.552.46.746.89.098.189.247.517.344.713l.366.765c.105.219.194.445.194.496 0 .05.067.219.15.364.38.7.552 1.217.582 1.822.023.605.023.612-.261 1.02a6.9 6.9 0 01-.411.54c-.075.072-.135.152-.135.189 0 .029-.149.21-.336.4-.71.722-.672 1.203.187 2.42.8 1.122 1.852 2.23 2.905 3.06.3.24.628.51.732.604.098.088.21.16.24.16s.119.066.186.14a1.2 1.2 0 00.366.232c.134.051.291.132.351.183.157.123 1.046.582 1.27.648.104.03.231.088.284.131.06.044.32.153.59.248.455.153.492.153.68.044.223-.132 1.18-1.086 1.672-1.669.478-.554.732-.707 1.21-.7.299 0 .508.059.83.226.238.124.47.226.522.226.052 0 .134.051.187.11.052.065.239.145.418.19.18.043.366.123.41.181.045.059.225.139.396.182.165.044.389.139.493.212.105.073.292.153.426.175.134.029.314.109.41.182a1.3 1.3 0 00.397.182c.127.03.313.138.433.248.18.167.201.24.201.67 0 .328-.06.648-.186 1.006-.105.284-.187.568-.187.626 0 .175-.62.86-1.202 1.326-1.009.81-2.136 1.254-3.309 1.305-.373.014-.747.014-.829-.008z" fill="#fff"/></svg></svg>