<svg width="24" height="24" viewBox="0 0 24 24" xmlns="http://www.w3.org/2000/svg"><path d="M12.3894 21.4071L12.4846 21.4121C12.4413 21.4121 12.3996 21.4067 12.3593 21.4022C12.3682 21.4036 12.3783 21.4058 12.3894 21.4071ZM11.5469 21.0045C11.543 21.0006 11.5391 20.9966 11.5352 20.9926L11.5401 20.9797L11.5644 20.955L11.5469 21.0045ZM11.5644 20.955L11.5401 20.9797L11.8773 20.0607L11.5644 20.955ZM12.127 14.774C12.1253 14.7722 12.1237 14.7697 12.1222 14.7681C12.1168 14.7626 12.112 14.7584 12.1086 14.7552L12.127 14.774ZM19.3142 14.0073H19.3122L19.216 14.0024C19.2497 14.0024 19.2825 14.0044 19.3142 14.0073ZM0.700117 9.3706C0.700123 9.40487 0.702791 9.43684 0.705948 9.46656C0.703252 9.43623 0.700122 9.40415 0.700117 9.3706ZM8.44893 8.49113C8.4513 8.4786 8.45466 8.46555 8.4567 8.45156C8.4548 8.46536 8.45119 8.47835 8.44893 8.49113ZM8.53347 4.0295C8.53814 4.06944 8.54222 4.11214 8.54222 4.15612L8.53833 4.08885C8.53709 4.07136 8.53779 4.05601 8.53639 4.04433C8.53576 4.03913 8.53413 4.03427 8.53347 4.0295ZM12.7295 15.1034C12.7316 15.1049 12.7379 15.1095 12.7499 15.1173C12.7752 15.1337 12.812 15.1563 12.8597 15.1846C12.9548 15.241 13.0762 15.3092 13.2028 15.3775C13.3295 15.4458 13.4544 15.5109 13.5565 15.5605C13.68 15.6204 13.7137 15.6308 13.6877 15.6228H13.6867C13.7946 15.6552 13.8997 15.6969 13.9899 15.7405C14.0443 15.7669 14.1329 15.8127 14.226 15.8781C14.2432 15.8863 14.2669 15.898 14.298 15.9117C14.3777 15.9468 14.4819 15.9877 14.5905 16.0284C14.701 15.9219 14.8383 15.7855 14.986 15.6307C15.3049 15.2964 15.6485 14.9124 15.8722 14.6345L15.879 14.6266L16.0714 14.4011C16.2694 14.1787 16.4855 13.9713 16.7371 13.8174C17.1152 13.586 17.49 13.5216 17.8575 13.5256H17.8721C18.3648 13.5279 18.7327 13.6505 19.1587 13.8837H19.1597C19.2645 13.9407 19.3617 13.9897 19.4308 14.0212C19.4394 14.0251 19.4473 14.0281 19.4541 14.0311C19.6362 14.0724 19.7701 14.1491 19.8311 14.1874C19.8975 14.229 19.9617 14.2783 20.0226 14.3328C20.0361 14.3375 20.0506 14.3446 20.0663 14.3486C20.2106 14.3856 20.3589 14.4381 20.491 14.499C20.5567 14.5293 20.6341 14.5686 20.7116 14.6187C20.7409 14.6377 20.793 14.6717 20.8525 14.7226L20.8865 14.7354L20.8972 14.7384L21.0915 14.8017C21.2987 14.8773 21.5358 14.9892 21.7096 15.1163C21.7013 15.1103 21.6963 15.1062 21.695 15.1054L21.7241 15.1203C21.7296 15.1227 21.7352 15.1245 21.7397 15.1262C21.7406 15.1266 21.7418 15.1269 21.7426 15.1272L21.7475 15.1282L21.7737 15.1341L21.9797 15.1945C22.191 15.2685 22.411 15.3822 22.5783 15.514C22.5681 15.506 22.5609 15.5012 22.5579 15.4992L22.5832 15.512C22.5963 15.5183 22.6087 15.5236 22.6172 15.5269C22.6209 15.5283 22.623 15.5288 22.623 15.5288C22.6229 15.5288 22.6185 15.527 22.6104 15.5249L22.6094 15.5259C22.8057 15.5753 22.9782 15.6642 23.0963 15.7356C23.1616 15.7751 23.2286 15.8204 23.2945 15.8701L23.485 16.0324L23.4937 16.0403L23.6016 16.1521C23.7177 16.2824 23.8499 16.4693 23.9261 16.7348C24.0014 16.997 24 17.2812 24 17.4767C24 17.9512 23.9159 18.4012 23.758 18.8676L23.7551 18.8785L22.8174 18.5382C22.913 18.2557 22.9704 17.9946 22.9933 17.7359L23.0049 17.4767C23.0049 17.136 22.9922 17.0077 22.9097 16.8901L22.8028 16.7694C22.7128 16.6829 22.5846 16.5957 22.4724 16.5448L22.3674 16.5072C22.2774 16.4841 22.153 16.4314 22.0555 16.3737L21.8825 16.2569C21.8172 16.2186 21.7395 16.1819 21.6649 16.155L21.557 16.1234C21.4556 16.1061 21.3242 16.0541 21.2208 15.9968L21.1294 15.9384C21.0244 15.8615 20.7989 15.762 20.6338 15.7158C20.4612 15.6697 20.2814 15.5844 20.2364 15.5229C20.2026 15.4767 20.0883 15.4177 19.9575 15.3715L19.8234 15.331C19.6436 15.2849 19.4564 15.2003 19.4036 15.1311C19.3642 15.0851 19.3076 15.0434 19.2598 15.0253L19.216 15.0154C19.1898 15.0154 19.1183 14.9884 19.0236 14.9452L18.6903 14.777C18.4482 14.6443 18.2694 14.577 18.0684 14.5514L17.8575 14.5386C17.3773 14.5309 17.1219 14.6923 16.6418 15.2766C16.1466 15.8918 15.1858 16.9 14.9607 17.0385L14.8392 17.1028C14.7283 17.1436 14.6212 17.1129 14.2785 16.992C14.0088 16.8921 13.7463 16.7771 13.6857 16.7308C13.6332 16.6847 13.5051 16.6231 13.4 16.5923C13.1747 16.5229 12.2833 16.0387 12.1251 15.9077C12.0651 15.8539 11.9073 15.7697 11.7723 15.7158C11.6448 15.662 11.4791 15.5541 11.4041 15.4695C11.3365 15.3926 11.2465 15.3231 11.2165 15.3231C11.2014 15.3228 11.1659 15.304 11.1222 15.2736L10.9765 15.1539C10.8713 15.0538 10.5417 14.7694 10.2418 14.5158C9.18392 13.6391 8.12551 12.4701 7.32266 11.2858C6.45978 10.0015 6.42235 9.49386 7.13511 8.73251C7.27558 8.58278 7.39494 8.43707 7.44607 8.36055L7.47231 8.3091C7.47231 8.28991 7.48785 8.2595 7.51215 8.22403L7.60738 8.10927C7.67489 8.03239 7.86284 7.77878 8.02038 7.54044C8.30552 7.10975 8.30527 7.10146 8.28276 6.46311C8.25648 5.90471 8.12157 5.41674 7.83186 4.80904L7.69776 4.54095C7.61526 4.38721 7.5472 4.21006 7.54714 4.15612C7.54714 4.12925 7.52535 4.05619 7.4898 3.96124L7.35278 3.6328L6.98449 2.82555C6.88694 2.61788 6.73704 2.27165 6.63951 2.07172C6.44446 1.61811 6.17436 1.28005 5.88931 1.13388C5.61179 0.98013 4.0672 0.972115 3.79614 1.11806C3.18085 1.45645 2.97763 1.60261 2.7 1.90255C2.37746 2.24856 1.69583 3.23993 1.6952 3.36371L1.68645 3.40032C1.67095 3.44321 1.63425 3.50261 1.58928 3.54871L1.52806 3.65456C1.45208 3.81063 1.33882 4.10244 1.2375 4.40245L1.10048 4.83872C0.998451 5.20865 0.990879 5.45948 0.996504 6.32462L1.00331 6.98248C1.01736 7.50483 1.06021 7.67685 1.18405 8.01727C1.28908 8.2941 1.39504 8.64007 1.42505 8.79385C1.44761 8.95527 1.52248 9.11696 1.58248 9.17076C1.64239 9.22461 1.6952 9.30917 1.6952 9.3706L1.70297 9.41511C1.7865 9.70951 2.47061 11.0233 2.85062 11.6004C2.93316 11.7235 3.08277 11.9625 3.18782 12.1317C3.84813 13.1776 4.62894 14.1085 6.27219 15.7851C7.74988 17.3073 8.29023 17.7996 9.00283 18.284C9.25045 18.4532 9.51377 18.6532 9.5888 18.7301C9.66383 18.7993 9.76883 18.8607 9.82883 18.8607C9.88138 18.8608 9.971 18.9152 10.031 18.9844C10.0835 19.0459 10.2489 19.1689 10.3915 19.2535C10.5415 19.3304 10.7143 19.4297 10.7744 19.4681C11.1795 19.7219 11.6747 19.9838 11.8773 20.0607L11.5401 20.9797L11.5352 20.9926C11.5341 20.9915 11.5324 20.9908 11.5314 20.9896C11.5416 21.0001 11.5499 21.0092 11.5566 21.0154C11.5632 21.0214 11.569 21.0257 11.5731 21.0292C11.5644 21.021 11.5555 21.013 11.5469 21.0045L11.8773 20.0607C12.0048 20.1069 12.1693 20.2072 12.2368 20.2764C12.3043 20.3455 12.4171 20.3989 12.4846 20.399C12.5597 20.399 12.7625 20.4841 12.9501 20.584C13.1376 20.684 13.4225 20.8072 13.5876 20.861C13.7527 20.9149 13.956 21.0068 14.0385 21.053C14.1213 21.1068 14.3609 21.1919 14.5632 21.2379C14.7732 21.2918 15.051 21.3832 15.1861 21.4447C15.3212 21.5062 15.6141 21.5912 15.8392 21.6297C16.0643 21.6682 16.4472 21.7532 16.6797 21.8147C16.9197 21.8839 17.1822 21.9527 17.2647 21.968C17.3061 21.9796 17.4206 21.9859 17.5718 21.9868L18.0975 21.9759C19.2756 21.9221 20.4089 21.4526 21.4219 20.5989C21.9703 20.1377 22.552 19.4742 22.623 19.2406L22.6298 19.1991C22.6301 19.1368 22.7125 18.8376 22.8174 18.5382L23.7541 18.8785C23.7085 19.0088 23.6681 19.1381 23.6404 19.2366C23.628 19.2809 23.6198 19.313 23.6152 19.3326C23.5917 19.5285 23.5251 19.6763 23.4986 19.7323C23.4515 19.8316 23.3958 19.9221 23.347 19.9954C23.2478 20.1443 23.1228 20.3022 22.9933 20.4525C22.7323 20.755 22.3923 21.0972 22.0555 21.3804C20.8962 22.3571 19.5608 22.9231 18.1422 22.988H18.1374C17.9385 22.9961 17.7349 23.0009 17.565 22.9998C17.4809 22.9993 17.3965 22.9972 17.3211 22.9929C17.2875 22.991 17.1925 22.9824 17.0859 22.9613V22.9642C17.0687 22.961 17.0489 22.9543 17.0267 22.9494C17.0184 22.9473 17.0096 22.9477 17.0014 22.9454V22.9435C16.8506 22.9089 16.6172 22.8481 16.429 22.7941V22.7951C16.2211 22.7401 15.8669 22.6618 15.674 22.6289C15.3952 22.5812 15.0154 22.4769 14.7799 22.3697C14.7167 22.3409 14.4991 22.2661 14.3203 22.2203V22.2193C14.1871 22.1878 14.0501 22.1476 13.9306 22.1055C13.8443 22.0752 13.696 22.0183 13.5594 21.9393V21.9403C13.5627 21.9422 13.5535 21.9377 13.5303 21.9265C13.5092 21.9163 13.4826 21.904 13.4525 21.8909C13.389 21.8632 13.3276 21.8397 13.2844 21.8256C13.0572 21.7515 12.7191 21.6042 12.4885 21.4813C12.4556 21.4637 12.4222 21.4469 12.3904 21.4318C12.3605 21.4177 12.3341 21.4066 12.3136 21.3982C12.1453 21.3726 12.01 21.3154 11.9288 21.2755C11.8189 21.2215 11.696 21.1428 11.5809 21.0361C11.579 21.0349 11.5765 21.0336 11.5741 21.0322C11.564 21.0261 11.5536 21.0206 11.545 21.0164C11.5428 21.0153 11.5414 21.014 11.5401 21.0134L11.5362 21.0124L11.5294 21.0104C11.2355 20.8988 10.675 20.5964 10.2525 20.3318L10.235 20.3199C10.2286 20.316 10.2201 20.3112 10.2098 20.3051C10.1886 20.2925 10.162 20.2766 10.132 20.2596C10.0711 20.2249 10.0025 20.1879 9.9435 20.1577L9.91629 20.1438L9.89005 20.128C9.78588 20.0661 9.67964 19.995 9.5888 19.9272C9.55102 19.8989 9.49373 19.8535 9.43138 19.7986C9.33998 19.7648 9.27193 19.7299 9.23703 19.7105C9.12367 19.6474 9.01434 19.5678 8.92023 19.481L8.9008 19.4632L8.89302 19.4553C8.88904 19.4518 8.88254 19.4468 8.87359 19.4394C8.84727 19.4177 8.81087 19.3875 8.76475 19.3524C8.67308 19.2825 8.56018 19.2006 8.45087 19.1258V19.1268C7.64524 18.5792 7.04197 18.0191 5.56377 16.4963V16.4954C4.11452 15.0165 3.29084 14.074 2.62712 13.1002L2.34725 12.6728C2.24145 12.5024 2.09976 12.2784 2.02851 12.1722L2.02365 12.1653C1.79164 11.813 1.48391 11.2579 1.24042 10.7872C1.11683 10.5484 1.0012 10.3162 0.914876 10.1264C0.872449 10.0331 0.83185 9.93767 0.799237 9.85138C0.788724 9.82356 0.778699 9.78992 0.767169 9.75443C0.671857 9.62805 0.611158 9.5052 0.578648 9.42995C0.523267 9.30173 0.476877 9.15117 0.449403 8.98972L0.448432 8.99071C0.44829 8.99001 0.44814 8.98786 0.44746 8.98478L0.429968 8.91355C0.418009 8.8691 0.401959 8.81491 0.383324 8.75428C0.345577 8.63148 0.299477 8.49686 0.256023 8.38231L0.251164 8.36846C0.156438 8.10806 0.0796714 7.86957 0.0402927 7.52362C0.0232892 7.37411 0.0135887 7.20697 0.00822459 7.01117L0.00142227 6.32462C-0.00214645 5.77341 -0.00213061 5.39423 0.0402927 5.06428C0.0866577 4.70406 0.181233 4.42076 0.29295 4.08094L0.295865 4.07302L0.409561 3.75151C0.448181 3.64759 0.487466 3.54889 0.524229 3.45967C0.560564 3.3715 0.59904 3.28334 0.636953 3.20543C0.651992 3.17453 0.70025 3.0717 0.775915 2.96503C0.796397 2.91064 0.8168 2.86324 0.833249 2.8295C0.870551 2.75301 0.91465 2.6747 0.95569 2.60593C1.03993 2.46477 1.14931 2.29949 1.26179 2.13602C1.47815 1.82162 1.76438 1.43527 1.97895 1.20511C2.36166 0.792258 2.67127 0.5851 3.3229 0.226719L3.32873 0.223751L3.457 0.163405C3.58227 0.113123 3.69715 0.088309 3.7631 0.0753598C3.87509 0.0533842 3.99424 0.0393709 4.10711 0.0288638C4.33446 0.00770633 4.59516 -0.00140634 4.84564 0.000174791C5.09617 0.00176311 5.3583 0.013367 5.5871 0.0377673C5.70065 0.0498853 5.82027 0.0673768 5.93304 0.0911882C6.01854 0.10925 6.17639 0.148255 6.33535 0.230676L6.33632 0.228698C6.33998 0.230572 6.34337 0.233725 6.34701 0.235622C6.35264 0.238614 6.35889 0.240429 6.3645 0.243537L6.36353 0.245515C6.91046 0.537456 7.29206 1.08428 7.53062 1.6216L7.88239 2.38829L7.88822 2.40115L8.25555 3.20741C8.31628 3.34081 8.37381 3.47999 8.4188 3.60015C8.44087 3.65908 8.46394 3.724 8.48294 3.78712C8.48535 3.79513 8.50458 3.85831 8.52084 3.94739C8.52607 3.9604 8.53313 3.97621 8.54125 3.99388L8.57429 4.06115L8.57817 4.06808C8.95073 4.78692 9.17575 5.40741 9.25257 6.10895L9.27687 6.41464L9.27784 6.42651H9.27687C9.28576 6.67877 9.30745 7.01477 9.23314 7.32181C9.14936 7.66775 8.95804 7.93618 8.84541 8.1063L8.84444 8.10531C8.68434 8.3475 8.4728 8.6394 8.35661 8.77406C8.35158 8.78438 8.34885 8.79427 8.34495 8.80176C8.31631 8.85682 8.28721 8.90232 8.26915 8.92938C8.23061 8.98714 8.1875 9.04459 8.14866 9.0936C8.0683 9.19497 7.96423 9.31263 7.85421 9.42995L7.85518 9.43094C7.71172 9.58417 7.65752 9.67188 7.63751 9.71387C7.62713 9.73568 7.62921 9.73451 7.62974 9.73663C7.63131 9.75807 7.64313 9.83883 7.72497 10.0116C7.80676 10.1843 7.93809 10.408 8.14088 10.7101H8.14185C8.79887 11.6793 9.64215 12.6408 10.5013 13.4118L10.8696 13.7303L10.8774 13.7363L11.3273 14.1211C11.4685 14.2435 11.59 14.3504 11.6557 14.4129C11.6848 14.4266 11.7106 14.4369 11.7296 14.4476C11.8 14.487 11.8584 14.5293 11.8996 14.5613C11.9681 14.6144 12.0362 14.679 12.1008 14.7473L12.1125 14.7552C12.1227 14.762 12.1337 14.7686 12.1436 14.774C12.1483 14.7766 12.1521 14.7789 12.1542 14.78C12.1563 14.781 12.1559 14.7811 12.1533 14.78C12.2531 14.8206 12.3547 14.8686 12.4448 14.9175C12.5093 14.9525 12.6218 15.017 12.7295 15.1034Z"/></svg>