<svg width="36" height="36" viewBox="0 0 36 36" fill="none" xmlns="http://www.w3.org/2000/svg"><path d="M16.2986 35.0358C14.2149 34.9047 12.049 34.3072 10.1221 33.3308C8.29978 32.3981 8.28484 32.3981 7.97863 32.4783C7.82926 32.5147 7.31392 32.6532 6.8434 32.7843C5.55134 33.1341 4.32649 33.4401 3.78128 33.5494C3.51241 33.6077 3.10164 33.717 2.87012 33.7971C2.63112 33.8846 2.35478 33.9501 2.25769 33.9501C2.15313 33.9501 1.98882 33.9793 1.88426 34.023C1.71995 34.0813 1.67514 34.0667 1.57058 33.9137C1.46602 33.7534 1.46602 33.6951 1.60792 33.1705C1.69008 32.8572 1.7797 32.522 1.80958 32.42C1.88426 32.114 2.18301 31.072 2.62365 29.5564C3.19873 27.5964 3.19873 27.5745 2.54897 26.518C1.47349 24.7474 0.674351 22.8019 0.300922 21.0532C-0.0725076 19.2899 -0.102382 16.4409 0.233704 14.6776C0.41295 13.7158 1.04778 11.5225 1.36893 10.7502C2.19047 8.77556 3.43773 6.96852 5.12563 5.30722C6.59694 3.86451 8.25496 2.69868 10.0848 1.81702C11.8249 0.979082 13.0871 0.578329 15.1709 0.206721C16.2837 0.00998797 18.6811 -0.0628763 19.8313 0.0609929C21.1831 0.214008 23.5208 0.73863 24.2751 1.05195C24.402 1.10295 24.7755 1.25597 25.1041 1.39441C26.4111 1.91903 27.9347 2.82983 29.2118 3.83536C33.2449 7.00496 35.6423 11.5808 35.9634 16.7178C36.2024 20.514 35.2688 24.026 33.2075 27.0353C31.2433 29.8989 28.8907 31.961 26.0003 33.3308C22.871 34.8172 20.2346 35.2763 16.2986 35.0358Z" fill="#A4A472"/><path d="M23.162 27.4213C23.0799 27.4067 22.8185 27.3411 22.5795 27.2756C22.348 27.2173 21.9671 27.1371 21.743 27.1007C21.5189 27.0643 21.2277 26.9841 21.0932 26.9258C20.9588 26.8675 20.6825 26.7801 20.4733 26.7291C20.2717 26.6854 20.0327 26.6052 19.9505 26.5542C19.8684 26.5105 19.6667 26.4231 19.5024 26.372C19.3381 26.321 19.0543 26.2045 18.8676 26.1097C18.6809 26.015 18.4792 25.9349 18.4045 25.9349C18.3373 25.9349 18.2253 25.8839 18.1581 25.8183C18.0909 25.7527 17.9266 25.658 17.7996 25.6143C17.5979 25.5414 17.105 25.2937 16.7017 25.0532C16.642 25.0168 16.4702 24.9221 16.3208 24.8492C16.1789 24.769 16.0146 24.6525 15.9623 24.5942C15.9026 24.5286 15.8129 24.4776 15.7607 24.4776C15.7009 24.4776 15.5964 24.4193 15.5217 24.3537C15.447 24.2808 15.1856 24.0914 14.9391 23.9311C14.2296 23.4721 13.6919 23.0057 12.2206 21.563C10.5849 19.9746 9.80821 19.0929 9.15097 18.102C9.04641 17.9417 8.89704 17.7158 8.81488 17.5992C8.41158 17.0163 7.66472 15.6391 7.66472 15.4861C7.66472 15.4278 7.61244 15.3477 7.55269 15.2967C7.49294 15.2457 7.41826 15.0927 7.39585 14.9396C7.36598 14.7939 7.26142 14.466 7.15686 14.2037C6.99255 13.7738 6.97014 13.6281 6.97014 12.6007C6.96267 11.5077 6.97761 11.4494 7.20914 10.7791C7.34357 10.4002 7.50041 10.0359 7.56016 9.9703C7.61991 9.91201 7.66472 9.83186 7.66472 9.79543C7.66472 9.67885 8.34436 8.7389 8.66551 8.41101C8.94185 8.12684 9.1435 7.9884 9.75593 7.66779C10.0248 7.52935 11.5633 7.53664 11.8397 7.68237C12.1235 7.82081 12.3923 8.14141 12.5865 8.57131C12.6836 8.76076 12.833 9.08865 12.9301 9.28538C13.0272 9.4894 13.1915 9.83186 13.296 10.0505C13.4006 10.269 13.4902 10.4949 13.4902 10.5459C13.4902 10.5969 13.5574 10.7645 13.6396 10.9103C14.0205 11.6098 14.1923 12.1271 14.2221 12.7319C14.2445 13.3366 14.2445 13.3439 13.9607 13.752C13.8039 13.9778 13.6172 14.2183 13.55 14.2912C13.4753 14.364 13.4155 14.4442 13.4155 14.4806C13.4155 14.5097 13.2662 14.6919 13.0794 14.8814C12.3699 15.6027 12.4073 16.0836 13.2662 17.3004C14.0653 18.4226 15.1184 19.5301 16.1714 20.3607C16.4702 20.6012 16.7988 20.8708 16.9034 20.9655C17.0005 21.053 17.1125 21.1258 17.1424 21.1258C17.1722 21.1258 17.2619 21.1914 17.3291 21.2643C17.4038 21.3444 17.5681 21.4464 17.695 21.4974C17.8295 21.5484 17.9863 21.6286 18.0461 21.6796C18.2029 21.8035 19.0917 22.2625 19.3157 22.3281C19.4203 22.3572 19.5472 22.4155 19.5995 22.4592C19.6593 22.503 19.9207 22.6123 20.1895 22.707C20.6451 22.86 20.6825 22.86 20.8692 22.7507C21.0932 22.6195 22.0492 21.665 22.5421 21.0821C23.0201 20.5283 23.2741 20.3753 23.7521 20.3826C24.0508 20.3826 24.2599 20.4409 24.5811 20.6085C24.8201 20.7324 25.0516 20.8344 25.1039 20.8344C25.1561 20.8344 25.2383 20.8854 25.2906 20.9437C25.3429 21.0092 25.5296 21.0894 25.7088 21.1331C25.8881 21.1768 26.0748 21.257 26.1196 21.3153C26.1644 21.3736 26.3437 21.4537 26.5154 21.4974C26.6797 21.5411 26.9038 21.6359 27.0084 21.7087C27.1129 21.7816 27.2996 21.8618 27.4341 21.8836C27.5685 21.9128 27.7477 21.9929 27.8448 22.0658C27.9419 22.1386 28.1212 22.2188 28.2407 22.2479C28.3676 22.2771 28.5544 22.3864 28.6739 22.4957C28.8531 22.6633 28.8755 22.7361 28.8755 23.166C28.8755 23.4939 28.8158 23.8145 28.6888 24.1715C28.5842 24.4557 28.5021 24.7399 28.5021 24.7982C28.5021 24.9731 27.8822 25.658 27.2996 26.1243C26.2914 26.9331 25.1636 27.3776 23.991 27.4286C23.6176 27.4432 23.2442 27.4432 23.162 27.4213Z" fill="white"/></svg>