<svg width="24" height="24" viewBox="0 0 24 24" xmlns="http://www.w3.org/2000/svg"><path d="M17.3496 22.0445C17.2666 22.0298 17.0027 21.9636 16.7614 21.8974C16.5276 21.8385 16.1431 21.7576 15.9168 21.7208C15.6906 21.6841 15.3965 21.6031 15.2608 21.5443C15.1251 21.4854 14.8461 21.3971 14.6349 21.3456C14.4313 21.3015 14.19 21.2206 14.1071 21.1691C14.0241 21.1249 13.8205 21.0367 13.6546 20.9852C13.4887 20.9337 13.2022 20.816 13.0137 20.7203C12.8252 20.6247 12.6216 20.5438 12.5462 20.5438C12.4783 20.5438 12.3652 20.4923 12.2973 20.4261C12.2295 20.3598 12.0636 20.2642 11.9354 20.2201C11.7318 20.1465 11.2341 19.8964 10.8269 19.6536C10.7666 19.6168 10.5931 19.5212 10.4423 19.4476C10.299 19.3667 10.1332 19.249 10.0804 19.1901C10.02 19.1239 9.92955 19.0724 9.87677 19.0724C9.81644 19.0724 9.71087 19.0136 9.63547 18.9473C9.56006 18.8738 9.29614 18.6825 9.0473 18.5207C8.33093 18.0572 7.788 17.5863 6.30249 16.1297C4.65109 14.5259 3.86686 13.6358 3.20328 12.6353C3.09771 12.4734 2.9469 12.2453 2.86395 12.1276C2.45676 11.5391 1.70269 10.1487 1.70269 9.99418C1.70269 9.93533 1.6499 9.85441 1.58958 9.80291C1.52925 9.75141 1.45385 9.59692 1.43122 9.44243C1.40106 9.29529 1.29549 8.96424 1.18992 8.6994C1.02403 8.26535 1.00141 8.11821 1.00141 7.08091C0.993866 5.9774 1.00895 5.91855 1.24271 5.24173C1.37844 4.85917 1.53679 4.49134 1.59712 4.42513C1.65744 4.36627 1.70269 4.28535 1.70269 4.24856C1.70269 4.13086 2.38889 3.18184 2.71314 2.85078C2.99214 2.56387 3.19574 2.42409 3.81407 2.10039C4.08554 1.96062 5.63892 1.96797 5.91792 2.11511C6.20447 2.25489 6.47593 2.57858 6.67199 3.01263C6.77002 3.20391 6.92083 3.53496 7.01886 3.73359C7.11689 3.93958 7.28278 4.28535 7.38835 4.50605C7.49392 4.72675 7.58441 4.95481 7.58441 5.00631C7.58441 5.05781 7.65227 5.22701 7.73522 5.37415C8.11979 6.08039 8.29323 6.60272 8.32339 7.21333C8.34601 7.82394 8.34601 7.8313 8.05947 8.24328C7.90112 8.47134 7.7126 8.71411 7.64473 8.78768C7.56933 8.86124 7.509 8.94217 7.509 8.97895C7.509 9.00838 7.35819 9.1923 7.16967 9.38357C6.45331 10.1119 6.49101 10.5974 7.35819 11.826C8.16504 12.959 9.22827 14.0772 10.2915 14.9158C10.5931 15.1586 10.9249 15.4308 11.0305 15.5265C11.1285 15.6147 11.2416 15.6883 11.2718 15.6883C11.302 15.6883 11.3924 15.7545 11.4603 15.8281C11.5357 15.909 11.7016 16.012 11.8298 16.0635C11.9655 16.115 12.1239 16.1959 12.1842 16.2474C12.3426 16.3725 13.2399 16.836 13.4661 16.9022C13.5717 16.9316 13.6999 16.9904 13.7527 17.0346C13.813 17.0787 14.0769 17.1891 14.3484 17.2847C14.8084 17.4392 14.8461 17.4392 15.0346 17.3289C15.2608 17.1964 16.226 16.2327 16.7237 15.6442C17.2063 15.0851 17.4627 14.9306 17.9453 14.9379C18.2469 14.9379 18.458 14.9968 18.7823 15.166C19.0236 15.291 19.2574 15.394 19.3101 15.394C19.3629 15.394 19.4459 15.4455 19.4987 15.5044C19.5514 15.5706 19.74 15.6515 19.9209 15.6957C20.1019 15.7398 20.2904 15.8207 20.3357 15.8796C20.3809 15.9384 20.5619 16.0194 20.7353 16.0635C20.9012 16.1076 21.1274 16.2033 21.233 16.2768C21.3386 16.3504 21.5271 16.4313 21.6628 16.4534C21.7986 16.4828 21.9795 16.5638 22.0776 16.6373C22.1756 16.7109 22.3566 16.7918 22.4772 16.8212C22.6054 16.8507 22.7939 16.961 22.9146 17.0714C23.0956 17.2406 23.1182 17.3141 23.1182 17.7482C23.1182 18.0792 23.0579 18.4029 22.9297 18.7634C22.8241 19.0503 22.7411 19.3373 22.7411 19.3961C22.7411 19.5727 22.1153 20.2642 21.5271 20.735C20.5091 21.5516 19.3705 22.0004 18.1866 22.0519C17.8095 22.0666 17.4325 22.0666 17.3496 22.0445Z"/></svg>